<svg width="765" height="662" viewBox="0 0 765 662" fill="none" xmlns="http://www.w3.org/2000/svg">
<foreignObject x="-20" y="-20" width="805" height="702"><div xmlns="http://www.w3.org/1999/xhtml" style="backdrop-filter:blur(10px);clip-path:url(#bgblur_0_1577_14958_clip_path);height:100%;width:100%"></div></foreignObject><g data-figma-bg-blur-radius="20">
<path fill-rule="evenodd" clip-rule="evenodd" d="M262.297 328.521L385.159 328.521C434.415 328.521 504.646 326.7 514.07 325.876C523.503 325.053 531.617 322.528 538.428 318.264C547.192 312.765 553.371 304.705 556.827 293.946C560.329 283.031 562.135 266.654 562.135 244.65C562.135 164.786 562.135 82.5808 562.135 0.960754C598.089 1.6012 621.888 2.5343 633.576 3.6322C656.101 5.79144 677.937 13.3213 699.031 26.1393C724.177 41.4277 741.586 62.3793 750.919 89.0035C760.306 115.811 765 157.815 765 215.034C765 263.177 762.011 298.731 756.053 321.402C750.085 344.065 738.836 362.126 722.399 375.657C704.706 390.25 677.992 400.314 642.175 405.767C684.464 409.079 715.093 421.028 733.354 442.154C744.108 454.606 750.818 469.94 753.724 487.964C756.612 505.841 758.051 543.39 758.051 600.627V662L559.156 662V626.757C559.156 590.041 557.808 563.728 555.012 548.184C552.17 532.484 547.384 520.416 539.757 512.136C532.469 504.204 522.009 499.556 508.771 497.406C495.69 495.274 427.411 494.268 385.663 494.268L262.297 494.268V328.521ZM0 0V82.9741C0 130.266 16.1346 165.738 65.1709 165.738L160.072 165.738C209.108 165.738 225.233 130.266 225.233 82.9741V-1.22881e-07L0 0ZM396.196 165.738L518.315 165.738V-2.82777e-07L275.718 -1.50424e-07V82.9741C275.718 177.01 209.539 247.129 114.739 247.129L48.1012 247.129C21.6442 247.129 0 268.731 0 295.144V662L163.711 662C190.205 662 211.812 640.426 211.812 613.985V328.521C211.812 239.407 312.736 165.738 396.196 165.738Z" fill="#F2F2F2" style="mix-blend-mode:color"/>
<path d="M163.711 660.5C189.379 660.5 210.312 639.596 210.312 613.985V328.521C210.313 283.381 235.864 242.298 271.75 212.557C307.636 182.815 354.061 164.237 396.196 164.237L516.814 164.237V1.5L277.219 1.5V82.9736C277.219 177.794 210.411 248.629 114.739 248.629L48.1016 248.629C22.4703 248.629 1.5 269.562 1.5 295.145V660.5L163.711 660.5ZM65.1709 164.237L160.071 164.237C184.174 164.237 199.966 155.552 209.805 141.241C219.714 126.828 223.733 106.496 223.733 82.9736V1.5L1.5 1.5V82.9736C1.5 106.496 5.5212 126.827 15.4326 141.24C25.2739 155.552 41.0675 164.237 65.1709 164.237ZM756.551 660.5V600.627C756.551 543.364 755.108 505.94 752.243 488.203V488.202C749.375 470.413 742.766 455.347 732.22 443.135C714.33 422.439 684.169 410.561 642.058 407.263L641.949 404.284C677.637 398.851 704.047 388.849 721.444 374.5L721.445 374.499C737.617 361.186 748.706 343.408 754.602 321.021C760.509 298.546 763.5 263.154 763.5 215.034C763.5 157.849 758.803 116.057 749.503 89.5C740.292 63.2232 723.12 42.5401 698.252 27.4209C677.333 14.7094 655.713 7.2619 633.436 5.12598C621.977 4.04973 598.741 3.12984 563.635 2.49023V244.649C563.635 266.01 561.94 282.223 558.585 293.344L558.255 294.404C554.698 305.477 548.309 313.836 539.226 319.535L539.224 319.535C532.177 323.946 523.827 326.531 514.201 327.371C504.702 328.201 434.406 330.021 385.158 330.021L263.797 330.021V492.768L385.663 492.768C406.547 492.768 434.064 493.019 457.999 493.537C481.866 494.054 502.341 494.838 509.013 495.925L509.012 495.926C522.453 498.109 533.271 502.86 540.861 511.121L540.86 511.122C548.763 519.702 553.624 532.091 556.488 547.917V547.918C559.31 563.608 560.655 590.041 560.655 626.757V660.5L756.551 660.5Z" stroke="white" stroke-opacity="0.29" stroke-width="3"/>
</g>
<defs>
<clipPath id="bgblur_0_1577_14958_clip_path" transform="translate(20 20)"><path fill-rule="evenodd" clip-rule="evenodd" d="M262.297 328.521L385.159 328.521C434.415 328.521 504.646 326.7 514.07 325.876C523.503 325.053 531.617 322.528 538.428 318.264C547.192 312.765 553.371 304.705 556.827 293.946C560.329 283.031 562.135 266.654 562.135 244.65C562.135 164.786 562.135 82.5808 562.135 0.960754C598.089 1.6012 621.888 2.5343 633.576 3.6322C656.101 5.79144 677.937 13.3213 699.031 26.1393C724.177 41.4277 741.586 62.3793 750.919 89.0035C760.306 115.811 765 157.815 765 215.034C765 263.177 762.011 298.731 756.053 321.402C750.085 344.065 738.836 362.126 722.399 375.657C704.706 390.25 677.992 400.314 642.175 405.767C684.464 409.079 715.093 421.028 733.354 442.154C744.108 454.606 750.818 469.94 753.724 487.964C756.612 505.841 758.051 543.39 758.051 600.627V662L559.156 662V626.757C559.156 590.041 557.808 563.728 555.012 548.184C552.17 532.484 547.384 520.416 539.757 512.136C532.469 504.204 522.009 499.556 508.771 497.406C495.69 495.274 427.411 494.268 385.663 494.268L262.297 494.268V328.521ZM0 0V82.9741C0 130.266 16.1346 165.738 65.1709 165.738L160.072 165.738C209.108 165.738 225.233 130.266 225.233 82.9741V-1.22881e-07L0 0ZM396.196 165.738L518.315 165.738V-2.82777e-07L275.718 -1.50424e-07V82.9741C275.718 177.01 209.539 247.129 114.739 247.129L48.1012 247.129C21.6442 247.129 0 268.731 0 295.144V662L163.711 662C190.205 662 211.812 640.426 211.812 613.985V328.521C211.812 239.407 312.736 165.738 396.196 165.738Z"/>
</clipPath></defs>
</svg>
